<svg xmlns="http://www.w3.org/2000/svg" xmlns:xlink="http://www.w3.org/1999/xlink" viewBox="0 0 430 430" width="430" height="430" preserveAspectRatio="xMidYMid meet" style="width: 100%; height: 100%; transform: translate3d(0px, 0px, 0px); content-visibility: visible;"><defs><clipPath id="__lottie_element_5847"><rect width="430" height="430" x="0" y="0"/></clipPath><clipPath id="__lottie_element_5849"><path d="M0,0 L430,0 L430,430 L0,430z"/></clipPath></defs><g clip-path="url(#__lottie_element_5847)"><g clip-path="url(#__lottie_element_5849)" transform="matrix(1,0,0,1,0,0)" opacity="1" style="display: block;"><g transform="matrix(0.9900112152099609,0,0,1.019988775253296,-32.51280212402344,-13.703521728515625)" opacity="1" style="display: block;"><g opacity="1" transform="matrix(1,0,0,1,250,350.3429870605469)"><path stroke-linecap="butt" stroke-linejoin="miter" fill-opacity="0" stroke-miterlimit="10" class="primary" stroke="rgb(15,138,255)" stroke-opacity="1" stroke-width="0.7" d=" M87.17400360107422,32.09199905395508 C30.040000915527344,17.023000717163086 -30.040000915527344,17.023000717163086 -87.17400360107422,32.09199905395508 C-100.62699890136719,35.63999938964844 -114.5260009765625,28.121000289916992 -119.03299713134766,14.958000183105469 C-119.09100341796875,14.788000106811523 -119.14900207519531,14.619000434875488 -119.20700073242188,14.449000358581543 C-124.22899627685547,-0.2199999988079071 -115.68099975585938,-15.994000434875488 -100.68699645996094,-19.94099998474121 C-34.69200134277344,-37.31100082397461 34.69200134277344,-37.31100082397461 100.68699645996094,-19.94099998474121 C115.68099975585938,-15.994000434875488 124.22899627685547,-0.2199999988079071 119.20700073242188,14.449000358581543 C119.14900207519531,14.619000434875488 119.09100341796875,14.788000106811523 119.03299713134766,14.958000183105469 C114.5260009765625,28.121000289916992 100.62699890136719,35.63999938964844 87.17400360107422,32.09199905395508z"/></g><g opacity="1" transform="matrix(1,0,0,1,250,350.3429870605469)"><path stroke-linecap="round" stroke-linejoin="round" fill-opacity="0" class="primary" stroke="rgb(15,138,255)" stroke-opacity="1" stroke-width="12.04" d=" M87.17400360107422,32.09199905395508 C30.040000915527344,17.023000717163086 -30.040000915527344,17.023000717163086 -87.17400360107422,32.09199905395508 C-100.62699890136719,35.63999938964844 -114.5260009765625,28.121000289916992 -119.03299713134766,14.958000183105469 C-119.09100341796875,14.788000106811523 -119.14900207519531,14.619000434875488 -119.20700073242188,14.449000358581543 C-124.22899627685547,-0.2199999988079071 -115.68099975585938,-15.994000434875488 -100.68699645996094,-19.94099998474121 C-34.69200134277344,-37.31100082397461 34.69200134277344,-37.31100082397461 100.68699645996094,-19.94099998474121 C115.68099975585938,-15.994000434875488 124.22899627685547,-0.2199999988079071 119.20700073242188,14.449000358581543 C119.14900207519531,14.619000434875488 119.09100341796875,14.788000106811523 119.03299713134766,14.958000183105469 C114.5260009765625,28.121000289916992 100.62699890136719,35.63999938964844 87.17400360107422,32.09199905395508z"/></g></g><g transform="matrix(0.9801222085952759,0,0,1.040377140045166,-30.04049301147461,-20.667882919311523)" opacity="1" style="display: block;"><g opacity="1" transform="matrix(1,0,0,1,220.34500122070312,186.8470001220703)"><path stroke-linecap="round" stroke-linejoin="round" fill-opacity="0" class="secondary" stroke="rgb(15,138,255)" stroke-opacity="1" stroke-width="12.04" d=" M39.51409912109375,-49.03628921508789 C61.700923919677734,-30.940147399902344 76.615234375,5.8463239669799805 79.08502197265625,36.06460952758789 M-19.76484489440918,36.07301330566406 C-17.293781280517578,5.843270778656006 -2.4411559104919434,-30.931171417236328 19.72541618347168,-49.03687286376953"/></g><g opacity="1" transform="matrix(1,0,0,1,250,134.0989990234375)"><path stroke-linecap="round" stroke-linejoin="round" fill-opacity="0" class="primary" stroke="rgb(15,138,255)" stroke-opacity="1" stroke-width="12.04" d=" M-18.190988540649414,-11.520259857177734 C-18.190988540649414,-1.4932597875595093 -10.061989784240723,6.635740280151367 -0.03498934954404831,6.635740280151367 C9.992011070251465,6.635740280151367 18.121009826660156,-1.4932597875595093 18.121009826660156,-11.520259857177734 C18.121009826660156,-21.547260284423828 9.992011070251465,-29.676259994506836 -0.03498934954404831,-29.676259994506836 C-10.061989784240723,-29.676259994506836 -18.190988540649414,-21.547260284423828 -18.190988540649414,-11.520259857177734z"/></g></g><g transform="matrix(0.9894103407859802,-0.035531483590602875,0.03448721021413803,1.0193697214126587,-43.57205581665039,-1.6262047290802002)" opacity="1" style="display: block;"><g opacity="1" transform="matrix(1,0,0,1,0,0)"><g opacity="1" transform="matrix(1,0,0,1,325.1300048828125,259.6520080566406)"><path stroke-linecap="round" stroke-linejoin="round" fill-opacity="0" class="primary" stroke="rgb(15,138,255)" stroke-opacity="1" stroke-width="12.04" d=" M9.300000190734863,66.83999633789062 C9.890000343322754,60.66999816894531 17.609281539916992,-11.455391883850098 65.77462005615234,-22.36601448059082 M65.79318237304688,-41.23882293701172 C56.37236022949219,-50.51847457885742 42.21137619018555,-60.753055572509766 19.231918334960938,-58.4593505859375 C3.749922037124634,-56.22063446044922 -12.250845909118652,-50.853782653808594 -28.74312973022461,-34.763671875 C-46.82723617553711,-16.82577133178711 -61.566951751708984,6.876898288726807 -73.97496795654297,53.83019256591797"/></g></g><g opacity="1" transform="matrix(1,0,0,1,412.5260009765625,243.18699645996094)"><path stroke-linecap="round" stroke-linejoin="round" fill-opacity="0" class="secondary" stroke="rgb(15,138,255)" stroke-opacity="1" stroke-width="12.04" d=" M-23.958131790161133,-11.236083984375 C-21.69354248046875,-2.084038734436035 -12.437837600708008,3.5003302097320557 -3.285792350769043,1.235739827156067 C5.866252899169922,-1.0288504362106323 11.450621604919434,-10.285554885864258 9.186031341552734,-19.43760108947754 C6.921441555023193,-28.589645385742188 -2.335263252258301,-34.17301559448242 -11.487308502197266,-31.908424377441406 C-20.639354705810547,-29.643835067749023 -26.22272300720215,-20.38813018798828 -23.958131790161133,-11.236083984375z"/></g></g><g transform="matrix(-0.9895014762878418,-0.03272688761353493,-0.03176504373550415,1.0194636583328247,472.7125549316406,-2.594210386276245)" opacity="1" style="display: block;"><g opacity="1" transform="matrix(1,0,0,1,0,0)"><g opacity="1" transform="matrix(1,0,0,1,325.1300048828125,259.6520080566406)"><path stroke-linecap="round" stroke-linejoin="round" fill-opacity="0" class="primary" stroke="rgb(15,138,255)" stroke-opacity="1" stroke-width="12.04" d=" M9.300000190734863,66.83999633789062 C9.890000343322754,60.66999816894531 17.641193389892578,-11.444908142089844 66.60265350341797,-20.16462516784668 M68.12825775146484,-38.38761901855469 C59.32554626464844,-48.65546417236328 45.28562545776367,-59.99509811401367 21.410612106323242,-58.27511215209961 C5.9342169761657715,-56.59650421142578 -10.934333801269531,-51.20818328857422 -27.981342315673828,-34.895721435546875 C-46.26923751831055,-17.15547752380371 -61.4590950012207,7.776616096496582 -73.86909484863281,54.72661590576172"/></g></g><g opacity="1" transform="matrix(1,0,0,1,412.5260009765625,243.18699645996094)"><path stroke-linecap="round" stroke-linejoin="round" fill-opacity="0" class="secondary" stroke="rgb(15,138,255)" stroke-opacity="1" stroke-width="12.04" d=" M-22.894193649291992,-9.17591381072998 C-21.044803619384766,0.13664241135120392 -11.995599746704102,6.1876301765441895 -2.683044195175171,4.338240623474121 C6.62951135635376,2.4888505935668945 12.680499076843262,-6.5611701011657715 10.831110000610352,-15.873725891113281 C8.981719970703125,-25.186281204223633 -0.0683010146021843,-31.236454010009766 -9.38085651397705,-29.38706398010254 C-18.69341278076172,-27.537673950195312 -24.74358367919922,-18.48847007751465 -22.894193649291992,-9.17591381072998z"/></g></g></g></g></svg>