<svg width="84" height="84" viewBox="0 0 84 84" fill="none" xmlns="http://www.w3.org/2000/svg">
<rect width="84" height="84" fill="white"/>
<path d="M52 45C52 51.4796 50.761 53.8188 49.2181 54.7644C48.4106 55.2593 47.3834 55.4679 46.0557 55.5293C45.2246 55.5677 44.3723 55.5487 43.4387 55.5278C42.8354 55.5143 42.1982 55.5 41.5107 55.5C40.8236 55.5 40.1863 55.5143 39.5828 55.5278C38.6484 55.5487 37.7949 55.5678 36.9624 55.5293C35.6326 55.4679 34.6022 55.2593 33.7916 54.7638C32.2438 53.8176 31 51.4783 31 45C31 38.1373 32.4712 32.6833 34.5661 28.855C36.629 25.0852 39.2231 23.007 41.5253 22.5163C44.2547 23.0109 46.8445 25.3003 48.7942 29.2047C50.7711 33.1636 52 38.6283 52 45Z" stroke="#0F8BFF" stroke-width="2"/>
<path d="M44.9 20C44.9 20.9941 44.5645 21.8376 44.0071 22.4245C43.458 23.0026 42.6298 23.4 41.5 23.4C39.6075 23.4 38.1 21.8925 38.1 20C38.1 18.9551 38.4158 17.9599 38.984 17.2497C39.5297 16.5674 40.3414 16.1 41.5 16.1C42.7277 16.1 43.531 16.5772 44.0541 17.2458C44.6044 17.9493 44.9 18.9432 44.9 20Z" fill="white" stroke="#121331" stroke-width="2.2"/>
<path d="M39.9184 50.9372C40.5134 52.7231 40.8482 54.2391 40.9587 55.2946C37.7513 56.3031 33.9583 56.63 30.7321 56.6877C29.0099 56.7184 27.4698 56.6723 26.296 56.6182C25.7629 56.5937 25.2792 56.5657 24.8889 56.5431C24.885 56.5429 24.881 56.5426 24.877 56.5424C24.2454 52.1994 23.3286 49.3256 22.2146 47.3522C21.006 45.2113 19.592 44.178 18.1972 43.4806C17.7369 43.2504 17.2552 43.0468 16.8178 42.862C16.6346 42.7845 16.4591 42.7104 16.2963 42.6389C15.7137 42.3833 15.2089 42.13 14.7526 41.791C13.9272 41.1779 13.1312 40.1881 12.5534 38.0758C14.4021 33.9281 19.1578 32.5368 23.3465 32.9892C29.1751 34.1726 33.5886 38.7092 36.5802 43.6918C38.0705 46.1741 39.1817 48.7255 39.9184 50.9372Z" fill="white" stroke="#121331" stroke-width="2"/>
<path d="M42.9573 51.2155C42.437 52.9395 42.1511 54.3652 42.0466 55.297C45.2588 56.3035 49.1581 56.5863 52.5028 56.5956C54.2874 56.6006 55.8899 56.528 57.1113 56.4539C57.6805 56.4193 58.1658 56.3845 58.5508 56.3568L58.6062 56.3529C59.119 52.312 59.9133 49.6053 60.9215 47.707C62.0209 45.6369 63.3463 44.5817 64.6908 43.8123C65.1174 43.5681 65.5715 43.3397 65.9954 43.1265C66.1967 43.0253 66.3911 42.9275 66.5726 42.8331C67.1658 42.5244 67.7124 42.208 68.2292 41.7971C69.1841 41.0378 70.1299 39.8819 70.929 37.6744C69.0646 33.5121 64.3154 32.1235 60.1405 32.5823C53.5805 33.7227 49.0478 38.5721 46.1213 43.7689C44.6626 46.3594 43.627 48.9968 42.9573 51.2155Z" fill="white" stroke="#121331" stroke-width="2"/>
<path d="M13.5 43L14 42.5L17.5 43.5" stroke="#121331"/>
<path d="M13.4 41C13.4 42.9244 11.6594 44.9 9.5 44.9C8.63225 44.9 7.79264 44.4658 7.14376 43.7171C6.49218 42.9653 6.1 41.967 6.1 41C6.1 39.1075 7.60751 37.6 9.5 37.6C10.8192 37.6 11.7858 38.0216 12.4141 38.6167C13.0425 39.2118 13.4 40.0424 13.4 41Z" stroke="#0F8BFF" stroke-width="2.2"/>
<path d="M76.9 41C76.9 42.0086 76.5621 42.9889 75.9299 43.7025C75.3162 44.3953 74.3711 44.9 73 44.9C72.1429 44.9 71.3025 44.4651 70.6492 43.7114C69.9937 42.9553 69.6 41.9565 69.6 41C69.6 39.1953 71.0317 37.6 73.5 37.6C75.3778 37.6 76.9 39.1222 76.9 41Z" stroke="#0F8BFF" stroke-width="2.2"/>
<path d="M18.4708 63.7058L18.4638 63.6708L18.4551 63.6362C18.0652 62.0766 18.3953 61.0021 19.1641 60.1369C20.0154 59.1786 21.5301 58.3443 23.7477 57.6884C28.1685 56.3809 34.5989 56 41.4999 56C48.401 56 54.7038 56.3811 59.0593 57.6868C61.239 58.3402 62.7524 59.175 63.6352 60.1483C64.4436 61.0398 64.8152 62.1429 64.5307 63.6963C63.9455 66.2519 63.1061 67.3832 62.2575 67.9194C61.3761 68.4763 60.1277 68.6254 58.1723 68.3861C56.8774 68.2277 55.47 67.9319 53.8484 67.5911C52.9923 67.4112 52.0765 67.2187 51.086 67.0273C48.2928 66.4874 45.087 66 41.4999 66C37.9319 66 34.7096 66.4201 31.8875 66.8788C30.9993 67.0232 30.1649 67.1685 29.3768 67.3057C27.6088 67.6135 26.0738 67.8808 24.6872 68.0061C22.6852 68.187 21.3918 68.0199 20.5089 67.4836C19.6939 66.9886 18.9267 65.9852 18.4708 63.7058Z" stroke="#121331" stroke-width="3"/>
</svg>
